HIERARCHY
ROOT Hips
{
	OFFSET -3.958830 18.904000 13.208200
	CHANNELS 6 Xposition Yposition Zposition Zrotation Yrotation Xrotation 
	JOINT LHipJoint
	{
		OFFSET 0.000000 0.000000 0.000000
		CHANNELS 3 Zrotation Yrotation Xrotation
		JOINT LeftUpLeg
		{
			OFFSET 1.800000 -1.400000 0.085000
			CHANNELS 3 Zrotation Yrotation Xrotation
			JOINT LeftLeg
			{
				OFFSET 2.215000 -6.000000 0.000000
				CHANNELS 3 Zrotation Yrotation Xrotation
				JOINT LeftFoot
				{
					OFFSET 2.500000 -6.900000 0.000000
					CHANNELS 3 Zrotation Yrotation Xrotation
					JOINT LeftToeBase
					{
						OFFSET 0.200000 -0.500000 1.950000
						CHANNELS 3 Zrotation Yrotation Xrotation
						End Site
						{
							OFFSET 0.000000 0.000000 0.000000
						}
					}
				}
			}
		}
	}
	JOINT RHipJoint
	{
		OFFSET 0.000000 0.000000 0.000000
		CHANNELS 3 Zrotation Yrotation Xrotation
		JOINT RightUpLeg
		{
			OFFSET -1.800000 -1.400000 0.085000
			CHANNELS 3 Zrotation Yrotation Xrotation
			JOINT RightLeg
			{
				OFFSET -2.215000 -6.000000 0.000000
				CHANNELS 3 Zrotation Yrotation Xrotation
				JOINT RightFoot
				{
					OFFSET -2.500000 -6.900000 0.000000
					CHANNELS 3 Zrotation Yrotation Xrotation
					JOINT RightToeBase
					{
						OFFSET -0.200000 -0.500000 1.950000
						CHANNELS 3 Zrotation Yrotation Xrotation
						End Site
						{
							OFFSET 0.000000 0.000000 0.000000
						}
					}
				}
			}
		}
	}
	JOINT LowerBack
	{
		OFFSET 0.000000 0.000000 0.000000
		CHANNELS 3 Zrotation Yrotation Xrotation
		JOINT Spine
		{
			OFFSET -0.087000 1.940000 -0.288900
			CHANNELS 3 Zrotation Yrotation Xrotation
			JOINT Spine1
			{
				OFFSET 0.000000 1.950000 0.060000
				CHANNELS 3 Zrotation Yrotation Xrotation
				JOINT Neck
				{
					OFFSET 0.000000 0.000000 0.000000
					CHANNELS 3 Zrotation Yrotation Xrotation
					JOINT Neck1
					{
						OFFSET 0.000000 1.600000 0.340000
						CHANNELS 3 Zrotation Yrotation Xrotation
						JOINT Head
						{
							OFFSET 0.000000 1.667000 -0.240000
							CHANNELS 3 Zrotation Yrotation Xrotation
							End Site
							{
								OFFSET 0.000000 0.000000 0.000000
							}
						}
					}
				}
				JOINT LeftShoulder
				{
					OFFSET 0.000000 0.000000 0.000000
					CHANNELS 3 Zrotation Yrotation Xrotation
					JOINT LeftArm
					{
						OFFSET 2.700000 1.550000 -0.730000
						CHANNELS 3 Zrotation Yrotation Xrotation
						JOINT LeftForeArm
						{
							OFFSET 5.450000 0.000000 0.000000
							CHANNELS 3 Zrotation Yrotation Xrotation
							JOINT LeftHand
							{
								OFFSET 3.450000 0.000000 0.000000
								CHANNELS 3 Zrotation Yrotation Xrotation
								JOINT LeftHandIndex1
								{
									OFFSET 0.750000 0.000000 0.000000
									CHANNELS 3 Zrotation Yrotation Xrotation
									End Site
									{
										OFFSET 0.000000 0.000000 0.000000
									}
								}
							}
						}
					}
				}
				JOINT RightShoulder
				{
					OFFSET 0.000000 0.000000 0.000000
					CHANNELS 3 Zrotation Yrotation Xrotation
					JOINT RightArm
					{
						OFFSET -2.700000 1.550000 -0.730000
						CHANNELS 3 Zrotation Yrotation Xrotation
						JOINT RightForeArm
						{
							OFFSET -5.450000 0.000000 0.000000
							CHANNELS 3 Zrotation Yrotation Xrotation
							JOINT RightHand
							{
								OFFSET -3.450000 0.000000 0.000000
								CHANNELS 3 Zrotation Yrotation Xrotation
								JOINT RightHandIndex1
								{
									OFFSET -0.750000 0.000000 0.000000
									CHANNELS 3 Zrotation Yrotation Xrotation
									End Site
									{
										OFFSET 0.000000 0.000000 0.000000
									}
								}
							}
						}
					}
				}
			}
		}
	}
}
MOTION
Frames: 12
Frame Time: 0.016667
-0.853680 16.967030 -2.890640 -11.108263 -14.714354 12.506202 -15.796881 10.681194 6.182293 27.220368 -4.044810 -40.584006 -32.371573 14.147075 18.033239 0.097914 9.217982 1.621095 0.457630 -0.025810 -0.107010 18.241080 -8.595964 2.298553 -4.330230 5.415626 -30.570731 7.355081 -5.540019 21.166417 0.180571 -3.395644 3.599635 0.237340 1.068490 0.312020 -2.856278 -2.674799 -8.321688 2.571007 -2.115099 8.587274 -6.411971 -1.220722 9.894414 1.893856 -3.177430 -9.916372 -5.838553 6.859525 21.033081 7.813040 -0.930480 2.476550 -9.083223 -4.269738 0.516490 -5.688843 -3.642857 -4.456195 85.303369 -26.317774 -24.017398 -4.252183 3.161577 0.241360 0.670170 -0.643580 0.608510 5.683214 6.182480 9.328394 3.120675 -26.676947 -1.275411 175.508666 68.922971 163.602469 1.479216 -2.541508 -0.411910 0.410290 0.057240 -0.061160 
-0.845530 16.958200 -2.913990 -10.884996 -15.542603 11.326099 -15.784313 10.993495 6.079790 26.595645 -4.309996 -39.743124 -30.856550 14.985108 21.088243 0.089354 9.369857 1.542015 0.495080 0.019740 -0.061320 18.202220 -8.698724 2.283821 -2.978211 5.198612 -29.439506 5.304939 -4.859010 20.885764 0.159691 -3.139379 3.689141 0.247920 1.002070 0.292910 -2.778317 -2.971179 -8.361735 1.970150 -2.546582 10.954860 -5.727903 -1.518043 8.692620 1.740061 -4.109108 -10.010196 -7.564431 7.694987 20.954343 8.118560 -0.421800 0.346950 -10.245866 -4.878822 0.644005 -7.284800 -4.843840 -4.471686 79.164466 -27.905943 -22.741998 -4.164696 3.074529 0.319900 0.603080 -0.573640 0.607850 7.260166 7.454269 9.263777 2.015538 -25.852579 -1.685106 -177.687911 69.598317 173.580372 1.517531 -2.493046 -0.413780 0.431360 0.030780 -0.080340 
-0.820460 16.954480 -2.941020 -10.606569 -16.594778 9.620461 -15.763612 11.328110 5.960734 25.911080 -4.506996 -38.702079 -28.894123 15.969802 24.955246 0.113286 9.589771 1.445440 0.556620 0.090100 0.026010 18.160575 -8.846803 2.268968 -1.534460 4.872644 -27.757455 2.959684 -4.052710 20.136298 0.126033 -2.850912 3.796343 0.263180 0.900150 0.260130 -2.696670 -3.203527 -8.424556 1.135987 -2.535979 14.464447 -4.679573 -1.395666 7.324493 1.617332 -4.902519 -10.089680 -9.036771 7.908197 21.047325 7.871250 0.059580 -2.427220 -11.506983 -5.251249 0.528264 -9.874377 -6.681172 -4.517908 73.689331 -30.051270 -22.133867 -4.031880 2.973166 0.405730 0.513790 -0.482750 0.608940 8.877903 8.561896 9.429132 3.102777 -24.464315 -2.677798 -175.608072 68.365787 175.866256 1.544761 -2.417279 -0.407760 0.449250 -0.030380 -0.106910 
-0.805400 16.963150 -2.962560 -10.323395 -17.503644 8.137461 -15.713392 11.699826 5.681567 24.478899 -4.631002 -37.765045 -24.655968 16.333720 29.612567 0.064379 9.662471 1.381335 0.603030 0.147770 0.059900 18.143708 -9.021936 2.315635 0.007775 4.605795 -26.121776 1.061552 -3.385739 19.222113 0.114790 -2.658590 3.868424 0.288910 0.843200 0.239590 -2.688910 -3.360372 -8.382919 0.710076 -2.236394 17.345758 -3.552752 -1.000165 6.294104 1.103069 -6.043532 -10.014153 -11.096668 8.347883 20.768304 8.472070 -0.267150 -4.610110 -12.413004 -5.034159 0.280993 -13.567171 -8.648299 -4.320290 67.767442 -34.075145 -22.375812 -3.922403 2.880543 0.446550 0.455770 -0.442030 0.602110 10.880837 9.363297 9.539277 5.443304 -21.714245 -3.544148 -178.377579 65.243162 170.533194 1.533046 -2.341397 -0.395230 0.464250 -0.047100 -0.114650 
-0.793390 16.979330 -2.981120 -9.622344 -18.290155 6.497384 -15.662203 12.194334 5.255431 22.120349 -4.839938 -36.548074 -18.671661 15.617127 34.421905 -0.032796 9.484188 1.419523 0.654450 0.203470 0.119710 18.113147 -9.232980 2.384553 1.457874 4.226835 -24.638515 -1.419810 -2.695535 18.599204 0.075578 -2.501758 3.926756 0.310320 0.789300 0.219190 -2.638527 -3.609125 -8.254019 -0.349314 -1.881660 19.642133 -2.129978 -0.692069 6.025027 0.402746 -7.043834 -9.942099 -13.138543 9.290706 21.115193 8.862000 0.013180 -7.104080 -13.023288 -4.520938 0.187637 -18.037914 -9.150209 -4.586161 61.758047 -41.395401 -23.997286 -3.769439 2.705566 0.510500 0.392730 -0.379940 0.604870 12.915808 9.768420 9.618811 9.380622 -17.766521 -4.231045 176.389730 60.974550 159.760766 1.515821 -2.238291 -0.393810 0.504190 -0.076630 -0.127840 
-0.783930 17.001000 -3.000360 -8.635987 -19.100225 4.402755 -15.598126 12.866234 4.659792 18.784728 -4.880729 -34.467812 -11.083668 13.395392 38.480259 -0.187516 8.906103 1.577221 0.697950 0.220610 0.193370 18.061472 -9.522807 2.488030 2.537041 3.749533 -22.925418 -3.759805 -2.197127 18.502175 0.009408 -2.466145 3.919599 0.295680 0.691840 0.229100 -2.537800 -3.937839 -8.071591 -2.103536 -1.209004 22.243221 -0.371211 -0.114686 5.842311 -0.271080 -7.797304 -9.955813 -14.939300 10.048519 22.293571 8.796940 0.538490 -9.670760 -14.131031 -4.707283 0.271201 -21.160338 -7.318642 -6.211268 52.602357 -54.245925 -26.128610 -3.543169 2.535250 0.605710 0.311780 -0.301750 0.581250 15.374628 10.786425 9.838966 13.339037 -14.048958 -4.882651 168.561743 58.101003 143.710005 1.534328 -2.130125 -0.376440 0.481500 -0.096030 -0.165550 
-0.781750 17.003980 -3.018260 -8.016375 -19.546418 3.008229 -15.552318 13.478408 4.063710 15.884423 -4.453442 -32.437821 -3.578088 10.288617 40.285210 -0.353842 8.040290 1.842316 0.763840 0.289860 0.265030 18.020240 -9.732512 2.650414 4.365342 3.461551 -21.584577 -7.084580 -1.427480 18.397461 -0.070380 -2.450209 3.909890 0.310840 0.586080 0.222000 -2.442046 -4.269527 -7.887480 -3.400644 -0.596968 24.033138 1.532867 0.498994 5.794615 -1.073864 -8.546182 -9.699092 -16.793585 10.589665 23.339675 8.791270 0.868160 -12.794830 -15.951839 -4.714287 0.269718 -22.846333 -4.593823 -7.991079 33.410048 -67.826692 -22.675070 -3.420605 2.747543 0.683830 0.225670 -0.218740 0.568840 18.752178 11.527521 9.837092 17.360776 -11.392740 -5.698095 161.739766 56.217634 129.135917 1.577673 -2.059892 -0.349230 0.470780 -0.133790 -0.190270 
-0.768430 16.991490 -3.035200 -7.742390 -20.117763 1.608296 -15.486316 14.023281 3.456922 13.284382 -3.702910 -29.654481 3.401650 6.845349 39.728320 -0.476420 7.066871 2.180072 0.822510 0.340230 0.348900 18.008015 -9.926372 2.880265 6.660677 3.233148 -20.128678 -11.233701 -0.551370 17.886117 -0.183672 -2.509882 3.876207 0.305740 0.485430 0.224830 -2.424067 -4.479372 -7.739830 -3.691328 -0.154686 25.996289 2.576815 1.126785 5.847354 -1.529076 -9.117616 -9.711678 -18.574479 11.065524 25.096224 8.442740 1.218460 -15.566070 -16.663574 -4.111617 0.742692 -26.382342 -4.026788 -7.812478 0.233907 -71.881431 -4.180064 -3.429520 3.181530 0.766220 0.141210 -0.124120 0.561860 20.300949 11.672161 9.404249 23.304504 -8.343389 -6.578850 147.910529 55.067561 103.630430 1.685735 -1.958037 -0.318690 0.461480 -0.180060 -0.212530 
-0.733420 16.934140 -3.051720 -7.758310 -19.568034 1.644500 -15.445557 14.252396 3.125528 11.024397 -3.388326 -28.647534 9.378355 3.838670 38.210264 -0.576314 6.321537 2.444508 0.889390 0.408900 0.437740 18.028098 -9.970604 3.092942 8.770164 3.315144 -20.060308 -14.955373 0.235241 17.521036 -0.276347 -2.602514 3.817188 0.338890 0.396640 0.204990 -2.491926 -4.549296 -7.680511 -2.626706 -0.471721 26.845014 2.980802 1.128230 5.475809 -1.864772 -9.577638 -9.279062 -19.884169 11.455713 25.714044 7.643920 1.584210 -17.814020 -17.990530 -2.904267 0.691728 -29.587402 -3.852181 -6.958095 -32.129422 -69.038640 16.283327 -3.441324 3.341247 0.824090 0.074720 -0.059380 0.551990 22.174098 10.768362 8.545395 29.035891 -6.795245 -7.605283 138.492493 54.567749 88.175423 1.764408 -1.935869 -0.311200 0.465810 -0.229300 -0.240300 
-0.691150 16.871360 -3.073110 -7.680169 -18.699038 1.692455 -15.421609 14.334854 2.967278 9.350465 -3.163331 -28.045524 12.897419 2.127317 36.553996 -0.629787 5.918827 2.581790 0.891960 0.401210 0.457100 18.047512 -9.954759 3.261524 10.377342 3.514856 -20.284394 -18.077289 0.825429 17.210245 -0.347624 -2.747426 3.740520 0.326970 0.353210 0.215100 -2.558689 -4.563610 -7.702680 -1.500523 -0.756099 27.940123 3.157391 1.151413 4.382017 -1.884553 -9.734022 -8.853451 -20.536594 11.899260 26.663134 6.944260 1.869150 -18.746800 -19.565734 -1.959951 0.510859 -33.583911 -3.240950 -6.790462 -49.502805 -62.714136 24.435417 -3.464957 3.368843 0.869140 0.043590 -0.027130 0.529050 23.717926 9.905211 7.695437 33.760554 -5.460636 -8.052589 130.721990 53.155925 75.769073 1.812970 -1.961534 -0.307490 0.448660 -0.220220 -0.260040 
-0.642340 16.796540 -3.093100 -7.025174 -17.134058 2.184132 -15.413276 14.301416 2.958270 7.508838 -3.129393 -28.277597 14.472044 1.379915 35.141429 -0.671523 5.643565 2.686718 0.886610 0.368450 0.492540 18.057769 -9.942520 3.351351 10.735526 4.018332 -21.834434 -20.229462 1.394612 18.395487 -0.384520 -2.911756 3.674489 0.307620 0.326750 0.220850 -2.610492 -4.469581 -7.743732 -0.689028 -0.874936 28.529607 3.153026 1.185759 2.743252 -1.679242 -9.579071 -8.081820 -20.142284 11.681818 27.312585 5.671260 2.071250 -18.982370 -21.340595 -0.494284 0.159495 -37.923229 -1.736597 -7.021447 -58.572896 -57.060535 26.485801 -3.487991 3.357917 0.894870 0.037760 -0.019420 0.505130 25.006022 8.511320 6.341677 37.428792 -3.769655 -7.838943 121.331696 51.105586 62.881309 1.834485 -2.013279 -0.315130 0.433560 -0.217840 -0.289820 
-0.579080 16.726550 -3.111550 -6.298043 -15.438890 2.458947 -15.418402 14.214063 3.062803 5.972431 -3.344006 -29.270027 15.204716 1.087503 35.560978 -0.655390 5.648955 2.682085 0.885520 0.340830 0.544880 18.061687 -9.914203 3.373309 10.372183 4.481327 -23.468266 -21.834839 1.897819 20.049565 -0.439490 -3.093535 3.588292 0.277870 0.269120 0.229240 -2.643265 -4.379622 -7.819632 0.123254 -0.974347 29.876868 3.101188 1.317668 0.665445 -1.139544 -9.314557 -7.341899 -19.293557 11.187340 27.657435 3.544800 2.600260 -19.850500 -22.470302 1.674548 -0.360056 -42.581290 0.281557 -7.580091 -64.222123 -51.906925 26.255250 -3.460483 3.354336 0.935660 0.009980 0.013120 0.483420 24.999102 6.525212 5.014885 40.873758 -2.818315 -7.719267 116.021812 48.688374 55.316577 1.842066 -2.065192 -0.315270 0.397030 -0.236030 -0.322510 
